<svg xmlns="http://www.w3.org/2000/svg" viewBox="0 0 29 43" width="29" height="43">
	<style>
		tspan { white-space:pre }
		.shp0 { fill: #a3acb5 } 
	</style>
	<path id="Forma 1 copy 2" class="shp0" d="M23 26.52L14.2 23.5C14.07 23.46 13.93 23.46 13.8 23.5L7.47 25.67C7.15 25.78 6.98 26.12 7.09 26.43C7.2 26.75 7.55 26.91 7.87 26.8L14 24.7L22.16 27.5C22.09 28.27 21.85 30.02 21.04 32.09C20.07 34.59 18.07 38.08 14 40.69C9.93 38.08 7.93 34.59 6.96 32.09C5.87 29.3 5.81 27.09 5.81 27.07C5.8 26.74 5.53 26.48 5.2 26.48C5.19 26.48 5.19 26.48 5.18 26.48C4.85 26.49 4.58 26.76 4.59 27.09C4.59 27.19 4.65 29.49 5.8 32.48C6.86 35.23 9.09 39.1 13.68 41.91C13.78 41.97 13.89 42 14 42C14.11 42 14.22 41.97 14.32 41.91C18.91 39.1 21.14 35.23 22.2 32.48C23.35 29.49 23.41 27.19 23.41 27.09C23.42 26.83 23.25 26.6 23 26.52ZM17.97 29.91C17.73 29.67 17.35 29.67 17.11 29.91L13.33 33.63L11.08 31.41C10.84 31.18 10.46 31.18 10.22 31.41C9.98 31.65 9.98 32.03 10.22 32.26L12.9 34.9C13.02 35.02 13.17 35.08 13.33 35.08C13.49 35.08 13.64 35.02 13.76 34.9L17.97 30.76C18.21 30.52 18.21 30.14 17.97 29.91ZM24.86 21.36L19.92 18.93C19.46 18.7 19.17 18.25 19.17 17.74L19.17 15.41C20.41 14.12 21.13 12.4 21.13 10.59L21.13 6.74C21.13 3.57 17.93 1 14 1C10.07 1 6.87 3.57 6.87 6.74L6.87 10.59C6.87 12.4 7.59 14.12 8.83 15.41L8.83 17.74C8.83 18.25 8.54 18.7 8.08 18.93L3.14 21.36C1.82 22.01 1 23.32 1 24.77L1 28.56C1 29.6 1.86 30.45 2.91 30.45C3.25 30.45 3.52 30.18 3.52 29.85C3.52 29.51 3.25 29.25 2.91 29.25C2.53 29.25 2.22 28.94 2.22 28.56L2.22 24.77C2.22 23.77 2.78 22.88 3.69 22.43L8.63 20C9.5 19.57 10.05 18.7 10.05 17.74L10.05 16.43C10.17 16.51 10.3 16.59 10.43 16.67C10.53 16.72 10.63 16.75 10.74 16.75C10.95 16.75 11.15 16.64 11.27 16.45C11.43 16.16 11.33 15.79 11.04 15.63C9.22 14.59 8.09 12.66 8.09 10.59L8.09 6.74C8.09 4.24 10.74 2.2 14 2.2C17.26 2.2 19.91 4.24 19.91 6.74L19.91 10.59C19.91 12.66 18.78 14.59 16.96 15.63C16.66 15.79 16.56 16.16 16.73 16.45C16.85 16.64 17.05 16.75 17.26 16.75C17.37 16.75 17.47 16.72 17.57 16.67C17.7 16.59 17.83 16.51 17.95 16.43L17.95 17.74C17.95 18.7 18.5 19.57 19.37 20L24.31 22.43C25.22 22.88 25.78 23.77 25.78 24.77L25.78 28.56C25.78 28.94 25.47 29.25 25.09 29.25C24.75 29.25 24.48 29.51 24.48 29.85C24.48 30.18 24.75 30.45 25.09 30.45C26.14 30.45 27 29.6 27 28.56L27 24.77C27 23.32 26.18 22.01 24.86 21.36Z" />
</svg>