<svg xmlns="http://www.w3.org/2000/svg" viewBox="0 0 43 42" width="43" height="42">
	<style>
		tspan { white-space:pre }
		.shp0 { fill: #a3acb5 } 
	</style>
	<path id="Forma 1 copy" class="shp0" d="M21.29 27.59L21.29 27.59C22.27 27.26 23.21 26.81 24.06 26.23C29.36 22.68 30.78 15.52 27.23 10.23C23.69 4.94 16.53 3.52 11.24 7.06C5.95 10.61 4.53 17.77 8.07 23.06C9.09 24.58 10.46 25.84 12.06 26.73L12.07 26.73C12.97 27.23 13.94 27.61 14.94 27.85L14.95 27.85C15.83 28.07 16.74 28.18 17.65 28.18C18.89 28.18 20.12 27.98 21.29 27.59ZM15.25 26.61C14.35 26.4 13.49 26.06 12.69 25.61C9.43 23.8 7.41 20.37 7.4 16.65C7.4 10.99 11.99 6.4 17.65 6.39C23.31 6.39 27.9 10.98 27.9 16.63C27.9 20.06 26.2 23.26 23.35 25.16C22.59 25.68 21.76 26.08 20.89 26.37L20.88 26.37C19.07 26.97 17.12 27.06 15.25 26.61L15.25 26.61ZM31.23 12.9C29.16 5.41 21.4 1 13.9 3.07C6.4 5.13 2 12.89 4.07 20.39C4.99 23.74 7.13 26.64 10.06 28.51C8.1 33.04 10.19 38.3 14.72 40.26C15.85 40.74 17.07 40.99 18.29 40.99C21.49 41 24.45 39.3 26.04 36.53C27.26 36.94 28.54 37.14 29.82 37.15C36.54 37.15 41.99 31.71 42 24.99C42 18.81 37.37 13.61 31.23 12.9ZM4.84 16.65C4.84 9.57 10.58 3.84 17.66 3.84C23.57 3.85 28.71 7.89 30.1 13.64C30.35 14.62 30.47 15.63 30.46 16.65C30.46 20.82 28.43 24.74 25.01 27.13C24.34 27.61 23.63 28.01 22.89 28.34C22.04 28.72 21.16 29.01 20.25 29.2C19.96 29.26 19.66 29.3 19.36 29.34L19.33 29.35C18.78 29.42 18.22 29.46 17.65 29.46C10.58 29.46 4.84 23.72 4.84 16.65ZM18.29 39.71C14.06 39.72 10.62 36.3 10.61 32.07C10.6 31.07 10.8 30.07 11.18 29.15C13.17 30.21 15.4 30.76 17.65 30.74C18.13 30.74 18.6 30.71 19.08 30.66C20.03 32.46 21.41 33.99 23.1 35.12C23.35 35.28 23.6 35.43 23.86 35.58L24.06 35.69C24.29 35.81 24.51 35.93 24.74 36.03C24.77 36.04 24.8 36.06 24.83 36.07C23.43 38.34 20.96 39.72 18.29 39.71ZM29.82 35.86L29.82 35.86C28.5 35.87 27.19 35.63 25.96 35.16C25.2 34.87 24.48 34.5 23.81 34.05C23.5 33.84 23.2 33.62 22.91 33.37C22.86 33.33 22.81 33.29 22.76 33.25C22.49 33.02 22.23 32.77 21.98 32.51C21.93 32.46 21.88 32.41 21.84 32.36C21.59 32.09 21.35 31.81 21.13 31.52C21.11 31.5 21.09 31.47 21.07 31.44C20.86 31.15 20.66 30.86 20.48 30.55C20.46 30.52 20.45 30.49 20.43 30.47L20.48 30.46C20.54 30.44 20.6 30.43 20.66 30.41C20.9 30.36 21.13 30.3 21.37 30.24C21.46 30.21 21.56 30.19 21.66 30.16C21.87 30.1 22.08 30.03 22.28 29.96C22.37 29.92 22.46 29.9 22.55 29.86C22.84 29.75 23.13 29.64 23.41 29.51C24.23 29.15 25.01 28.7 25.75 28.18L25.75 28.18C30.22 25.05 32.47 19.61 31.53 14.24C37.47 15.2 41.5 20.78 40.54 26.72C39.69 31.98 35.15 35.85 29.82 35.86ZM18.29 37.15C15.47 37.14 13.17 34.85 13.17 32.02L11.89 32.02C11.89 35.56 14.76 38.42 18.29 38.43C19.28 38.43 20.26 38.2 21.14 37.76L20.57 36.61C19.86 36.96 19.08 37.15 18.29 37.15ZM29.18 32.02L30.46 32.02L30.46 34.58L29.18 34.58L29.18 32.02ZM25.57 33.62L24.46 32.98L25.74 30.76L26.85 31.4L25.57 33.62ZM34.07 33.62L32.79 31.4L33.9 30.76L35.18 32.98L34.07 33.62ZM37.82 30.34L35.61 29.06L36.25 27.95L38.46 29.23L37.82 30.34ZM36.87 24.34L39.43 24.34L39.43 25.62L36.87 25.62L36.87 24.34ZM37.82 19.62L38.46 20.73L36.24 22.01L35.6 20.9L37.82 19.62ZM33.9 19.2L32.79 18.56L34.07 16.34L35.18 16.98L33.9 19.2ZM20.86 23.06C20.86 22.7 20.57 22.41 20.22 22.41L18.29 22.41L18.29 10.25C18.29 9.89 18.01 9.6 17.65 9.6C17.48 9.6 17.32 9.67 17.2 9.79L14.32 12.67C14.07 12.93 14.08 13.33 14.33 13.58C14.58 13.82 14.98 13.82 15.22 13.58L17.01 11.79L17.01 22.41L15.09 22.41C14.74 22.41 14.45 22.7 14.45 23.06C14.45 23.41 14.74 23.69 15.09 23.69L20.22 23.69C20.57 23.69 20.86 23.41 20.86 23.06Z" />
</svg>