<svg xmlns="http://www.w3.org/2000/svg" viewBox="0 0 43 37" width="43" height="37">
	<style>
		tspan { white-space:pre }
		.shp0 { fill: #a3acb5 } 
	</style>
	<path id="Shape 1" class="shp0" d="M41.81 33.29L40.23 27.79C40.2 27.67 40.12 27.56 40.05 27.49C39.07 24.51 36.66 22.21 33.62 21.42L33.17 21.34C32.49 21.16 31.74 21.38 31.25 21.95C29.59 23.83 27.49 23.98 25.27 23.98C23.05 23.98 20.95 23.83 19.29 21.95C18.8 21.38 18.05 21.16 17.38 21.34L16.92 21.46C14.63 22.06 12.68 23.53 11.44 25.49L6.7 25.49C6.66 25.49 6.66 25.49 6.62 25.45C6.62 25.41 6.59 25.37 6.59 25.3L7.56 21.8C8.43 19.05 10.08 18.22 13.32 17.39C13.47 17.35 13.58 17.28 13.65 17.2C13.92 17.43 14.22 17.61 14.52 17.76C14.63 17.84 14.74 17.84 14.86 17.84C15.12 17.84 15.38 17.69 15.53 17.43C15.72 17.05 15.57 16.6 15.2 16.41C13.47 15.51 12.23 12.94 12.23 10.3C12.23 7.97 14.14 6.05 16.47 6.05C16.92 6.05 17.34 6.12 17.75 6.24C17.34 7.25 17.11 8.35 17.11 9.51C17.11 15.96 20.98 21.38 25.57 21.38C30.08 21.38 34.07 15.84 34.07 9.51C34.07 4.81 30.27 1 25.57 1C22.6 1 19.97 2.54 18.47 4.88C17.83 4.65 17.15 4.54 16.47 4.54C14.44 4.54 12.64 5.63 11.62 7.25C11.55 7.18 11.47 7.14 11.4 7.1C10.83 6.8 10.27 6.69 9.63 6.69C7.53 6.65 5.83 8.35 5.83 10.46C5.83 11.66 6.17 12.79 6.7 13.7C4.97 14.15 3.43 14.83 2.71 17.12L2.11 19.31C2 19.69 2.08 20.1 2.3 20.4C2.53 20.74 2.94 20.93 3.35 20.93L6.25 20.93C6.21 21.08 6.14 21.23 6.1 21.38L5.12 24.92C4.97 25.41 5.08 25.94 5.42 26.36C5.72 26.77 6.17 27 6.7 27L10.68 27C10.57 27.26 10.5 27.52 10.42 27.79L8.84 33.33C8.69 33.96 8.8 34.64 9.22 35.17C9.63 35.7 10.23 36 10.87 36L33.43 36L34.71 36L39.78 36C40.42 36 41.06 35.7 41.44 35.17C41.85 34.64 42 33.96 41.81 33.29ZM19.37 6.35C19.41 6.31 19.44 6.27 19.48 6.2C19.52 6.16 19.52 6.08 19.56 6.05C20.72 3.94 22.98 2.51 25.57 2.51C28.69 2.51 31.32 4.58 32.23 7.41C30.91 7.67 29.52 7.14 28.69 6.01C28.43 5.67 27.98 5.59 27.64 5.86C27.49 5.97 27.41 6.08 27.38 6.24C27.34 6.27 27.34 6.31 27.3 6.35C26.25 8.5 22.71 9.4 18.69 8.61C18.8 7.82 19.03 7.07 19.37 6.35ZM21.47 10.38C24.48 10.38 26.96 9.44 28.24 7.67C29.18 8.5 30.35 8.95 31.59 8.95C31.89 8.95 32.23 8.91 32.53 8.84C32.56 9.06 32.56 9.25 32.56 9.48C32.56 15.02 29.29 19.87 25.57 19.87C22 19.87 18.88 15.39 18.62 10.12C19.59 10.3 20.57 10.38 21.47 10.38ZM3.65 19.42L4.18 17.54C4.63 15.99 5.57 15.54 7.45 15.09C7.56 15.05 7.68 15.02 7.75 14.94C7.94 15.09 8.09 15.2 8.32 15.32C8.43 15.39 8.54 15.39 8.65 15.39C8.92 15.39 9.18 15.24 9.33 14.98C9.52 14.6 9.37 14.15 9.03 13.96C8.05 13.43 7.34 11.96 7.34 10.46C7.34 9.18 8.35 8.16 9.63 8.16C10.05 8.16 10.38 8.23 10.72 8.42C10.83 8.46 10.91 8.5 11.02 8.5C10.83 9.06 10.72 9.66 10.72 10.3C10.72 12.45 11.44 14.56 12.56 16.03C10.31 16.6 8.32 17.35 7 19.42L3.65 19.42L3.65 19.42ZM40.27 34.27C40.2 34.34 40.05 34.49 39.78 34.49L34.71 34.49L33.43 34.49L10.87 34.49C10.61 34.49 10.46 34.34 10.38 34.27C10.27 34.12 10.23 33.89 10.27 33.74L11.85 28.24C12.6 25.64 14.67 23.6 17.3 22.93L17.75 22.81C17.86 22.78 18.05 22.85 18.17 22.96C20.23 25.34 22.79 25.53 25.27 25.53C27.75 25.53 30.31 25.34 32.38 22.96C32.49 22.85 32.64 22.78 32.83 22.81L33.28 22.93C35.87 23.6 37.98 25.64 38.73 28.24L39.41 30.58C39.44 30.69 39.48 30.76 39.56 30.84L40.38 33.7C40.42 33.89 40.38 34.12 40.27 34.27Z" />
</svg>