<svg xmlns="http://www.w3.org/2000/svg" viewBox="0 0 58 40" width="58" height="40">
	<defs>
		<linearGradient id="grd1" gradientUnits="userSpaceOnUse"  x1="57" y1="20.5" x2="2" y2="20.5">
			<stop offset="0" stop-color="#ff6b00"  />
			<stop offset="1" stop-color="#a5c939"  />
		</linearGradient>
	</defs>
	<style>
		tspan { white-space:pre }
		.shp0 { fill: url(#grd1) } 
	</style>
	<path id="Forma 1" class="shp0" d="M55.85 36.69L3.15 36.69C2.51 36.69 2 37.2 2 37.84C2 38.48 2.51 39 3.15 39L55.85 39C56.49 39 57 38.48 57 37.84C57 37.2 56.49 36.69 55.85 36.69ZM12.31 22.81L5.44 22.81C4.8 22.81 4.29 23.33 4.29 23.97L4.29 37.84C4.29 38.48 4.8 39 5.44 39L12.31 39C12.94 39 13.46 38.48 13.46 37.84L13.46 23.97C13.46 23.33 12.94 22.81 12.31 22.81ZM11.17 36.69L6.58 36.69L6.58 25.12L11.17 25.12L11.17 36.69L11.17 36.69ZM26.06 11.25L19.19 11.25C18.55 11.25 18.04 11.77 18.04 12.41L18.04 37.84C18.04 38.48 18.55 39 19.19 39L26.06 39C26.69 39 27.21 38.48 27.21 37.84L27.21 12.41C27.21 11.77 26.69 11.25 26.06 11.25ZM24.92 36.69L20.33 36.69L20.33 13.56L24.92 13.56L24.92 36.69L24.92 36.69ZM39.81 15.87L32.94 15.87C32.3 15.87 31.79 16.39 31.79 17.03L31.79 37.84C31.79 38.48 32.3 39 32.94 39L39.81 39C40.44 39 40.96 38.48 40.96 37.84L40.96 17.03C40.96 16.39 40.44 15.87 39.81 15.87ZM38.67 36.69L34.08 36.69L34.08 18.19L38.67 18.19L38.67 36.69ZM53.56 2L46.69 2C46.05 2 45.54 2.52 45.54 3.16L45.54 37.84C45.54 38.48 46.05 39 46.69 39L53.56 39C54.19 39 54.71 38.48 54.71 37.84L54.71 3.16C54.71 2.52 54.19 2 53.56 2ZM52.42 36.69L47.83 36.69L47.83 4.31L52.42 4.31L52.42 36.69Z" />
</svg>