<svg xmlns="http://www.w3.org/2000/svg" viewBox="0 0 24 27" width="24" height="27">
	<style>
		tspan { white-space:pre }
		.shp0 { fill: #e87845 } 
	</style>
	<path id="Shape 1" class="shp0" d="M19.95 17.07C19.53 16.51 18.98 16.17 18.36 16.09C17.74 16.02 17.12 16.21 16.55 16.66L14.78 18.03C14.66 17.94 14.53 17.86 14.42 17.78C14.25 17.67 14.09 17.57 13.95 17.46C12.59 16.34 11.39 14.95 10.3 13.22C9.77 12.36 9.43 11.64 9.21 10.93C9.66 10.6 10.09 10.26 10.51 9.93C10.66 9.81 10.82 9.68 10.98 9.56C12.16 8.64 12.33 7.28 11.41 6.11L10.21 4.59C10.07 4.41 9.93 4.23 9.8 4.06C9.54 3.71 9.26 3.35 8.97 3.01C8.55 2.47 8 2.15 7.39 2.07C6.78 2 6.15 2.18 5.59 2.6C5.59 2.6 5.59 2.6 5.58 2.61L3.67 4.11C2.95 4.67 2.49 5.4 2.3 6.29C2 7.73 2.26 9.14 2.48 10.07C3.03 12.35 3.99 14.51 5.53 16.9C7.4 19.78 9.78 22.15 12.62 23.98C13.7 24.66 15.16 25.49 16.86 25.81C16.97 25.82 17.08 25.84 17.18 25.86C18.33 26 19.35 25.71 20.22 24.97C20.22 24.97 20.23 24.96 20.24 24.95C20.54 24.67 20.87 24.42 21.23 24.16C21.47 23.98 21.71 23.79 21.96 23.59C22.51 23.14 22.85 22.58 22.92 21.96C23 21.34 22.81 20.72 22.36 20.16L19.95 17.07ZM21.1 22.54C21.09 22.54 21.09 22.55 21.1 22.54C20.88 22.73 20.65 22.89 20.41 23.08C20.05 23.35 19.68 23.63 19.33 23.95C18.75 24.43 18.13 24.61 17.35 24.52C17.27 24.51 17.19 24.5 17.12 24.49C15.64 24.21 14.33 23.46 13.36 22.84C10.69 21.13 8.44 18.88 6.68 16.18C5.23 13.92 4.32 11.89 3.81 9.76C3.5 8.46 3.45 7.47 3.64 6.57C3.76 5.99 4.04 5.53 4.51 5.17L6.43 3.68C6.7 3.48 6.98 3.39 7.23 3.42C7.55 3.46 7.78 3.68 7.92 3.86C7.92 3.87 7.93 3.87 7.93 3.88C8.2 4.2 8.46 4.53 8.72 4.88C8.86 5.06 9 5.24 9.14 5.42L10.34 6.95C10.8 7.54 10.74 8.03 10.15 8.49C9.98 8.62 9.83 8.75 9.66 8.87C9.19 9.24 8.74 9.6 8.26 9.93C8.25 9.94 8.24 9.94 8.23 9.95C7.75 10.33 7.77 10.76 7.83 11.05C7.83 11.07 7.84 11.09 7.84 11.1C8.09 12 8.49 12.87 9.13 13.92L9.14 13.93C10.31 15.8 11.6 17.3 13.08 18.5C13.27 18.66 13.47 18.79 13.66 18.91C13.83 19.02 13.99 19.13 14.12 19.24C14.14 19.25 14.16 19.27 14.18 19.28C14.34 19.38 14.49 19.44 14.66 19.46C15.07 19.52 15.36 19.29 15.46 19.21L17.38 17.72C17.57 17.57 17.87 17.4 18.18 17.43C18.49 17.47 18.72 17.7 18.86 17.89C18.86 17.89 18.86 17.89 18.87 17.89L21.29 20.98C21.74 21.55 21.67 22.08 21.1 22.54Z" />
</svg>