<svg xmlns="http://www.w3.org/2000/svg" viewBox="0 0 31 19" width="31" height="19">
	<style>
		tspan { white-space:pre }
		.shp0 { fill: #fd7532 } 
	</style>
	<path id="Shape 1" class="shp0" d="M27.81 5.44C27.08 4.64 26.04 4.2 24.89 4.2L22.11 4.2L22.11 2.67C22.11 2.3 21.81 2 21.45 2L8.21 2C7.85 2 7.55 2.3 7.55 2.67L7.55 5.02L4.97 5.02C4.61 5.02 4.31 5.32 4.31 5.69C4.31 6.06 4.61 6.36 4.97 6.36L8.2 6.36C8.2 6.36 8.21 6.36 8.21 6.36C8.21 6.36 8.21 6.36 8.22 6.36C8.58 6.36 8.88 6.06 8.88 5.69L8.88 3.35L20.79 3.35L20.79 4.87L20.79 13.9L14.55 13.9C14.52 13.9 14.49 13.9 14.47 13.9C14.14 13.07 13.33 12.48 12.4 12.48C11.46 12.48 10.66 13.08 10.34 13.91C10.29 13.9 10.24 13.9 10.19 13.9L8.88 13.9L8.88 11.55C8.88 11.18 8.58 10.87 8.22 10.87C8.21 10.87 8.2 10.87 8.19 10.87C8.18 10.87 8.17 10.87 8.16 10.87L4.97 10.87C4.61 10.87 4.31 11.18 4.31 11.55C4.31 11.92 4.61 12.22 4.97 12.22L7.55 12.22L7.55 14.57C7.55 14.94 7.85 15.24 8.21 15.24L10.19 15.24C10.2 15.24 10.21 15.24 10.23 15.24C10.45 16.25 11.34 17 12.4 17C13.46 17 14.35 16.25 14.57 15.24L21.45 15.24L22.52 15.24C22.74 16.24 23.63 17 24.69 17C25.75 17 26.63 16.25 26.86 15.24L28.34 15.24C28.7 15.24 29 14.94 29 14.57L29 8.97C29 7.52 28.59 6.3 27.81 5.44ZM12.4 15.66C11.9 15.66 11.5 15.25 11.5 14.75C11.5 14.24 11.9 13.83 12.4 13.83C12.9 13.83 13.3 14.24 13.3 14.75C13.3 15.25 12.9 15.66 12.4 15.66ZM24.69 15.66C24.19 15.66 23.79 15.25 23.79 14.75C23.79 14.24 24.19 13.83 24.69 13.83C25.18 13.83 25.59 14.24 25.59 14.75C25.58 15.25 25.18 15.66 24.69 15.66ZM27.67 13.9L26.75 13.9C26.41 13.07 25.61 12.48 24.69 12.48C23.76 12.48 22.96 13.07 22.63 13.9L22.12 13.9L22.12 5.55L24.9 5.55C26.64 5.55 27.67 6.83 27.67 8.98L27.67 13.9ZM13.38 9.88C13.12 10.15 13.12 10.57 13.38 10.84C13.51 10.96 13.68 11.03 13.85 11.03C14.03 11.03 14.19 10.96 14.32 10.84L16.03 9.1L16.04 9.1C16.05 9.08 16.06 9.07 16.07 9.05C16.08 9.04 16.09 9.03 16.09 9.02C16.1 9.01 16.1 9.01 16.11 8.99C16.12 8.98 16.12 8.97 16.13 8.96C16.14 8.95 16.14 8.95 16.15 8.93C16.15 8.92 16.16 8.91 16.16 8.9C16.17 8.89 16.17 8.88 16.17 8.87C16.18 8.86 16.18 8.85 16.18 8.84C16.19 8.83 16.19 8.82 16.2 8.81C16.2 8.8 16.2 8.79 16.2 8.78C16.2 8.77 16.21 8.75 16.21 8.74C16.21 8.73 16.21 8.72 16.21 8.7C16.21 8.69 16.22 8.69 16.22 8.67C16.22 8.63 16.22 8.59 16.22 8.54C16.22 8.53 16.22 8.52 16.21 8.51C16.21 8.5 16.21 8.49 16.21 8.47C16.21 8.46 16.2 8.45 16.2 8.44C16.2 8.43 16.2 8.42 16.2 8.41C16.19 8.4 16.19 8.38 16.18 8.38C16.18 8.37 16.18 8.36 16.17 8.34C16.17 8.33 16.16 8.33 16.16 8.32C16.16 8.31 16.15 8.29 16.15 8.28C16.14 8.27 16.14 8.27 16.13 8.26C16.12 8.24 16.12 8.23 16.11 8.22C16.11 8.21 16.1 8.2 16.09 8.19C16.09 8.18 16.08 8.18 16.07 8.16C16.06 8.15 16.05 8.14 16.04 8.12L16.03 8.11L14.41 6.46C14.15 6.2 13.73 6.2 13.47 6.46C13.21 6.73 13.21 7.15 13.47 7.42L13.96 7.92L2.66 7.92C2.3 7.92 2 8.22 2 8.59C2 8.96 2.3 9.27 2.66 9.27L13.95 9.27L13.38 9.88Z" />
</svg>