<svg xmlns="http://www.w3.org/2000/svg" viewBox="0 0 22 22" width="22" height="22">
	<style>
		tspan { white-space:pre }
		.shp0 { fill: #ff6b00 } 
	</style>
	<path id="Forma 1" class="shp0" d="M19.75 6.2C19.74 5.66 19.73 5.15 19.73 4.66C19.73 4.28 19.38 3.97 18.95 3.97C15.65 3.97 13.14 3.11 11.04 1.26C10.74 1 10.26 1 9.96 1.26C7.86 3.11 5.35 3.97 2.05 3.97C1.62 3.97 1.27 4.28 1.27 4.66C1.27 5.15 1.26 5.66 1.25 6.2C1.15 11.21 1 18.07 10.25 20.96C10.33 20.99 10.41 21 10.5 21C10.59 21 10.67 20.99 10.75 20.96C20 18.07 19.86 11.21 19.75 6.2ZM10.5 19.56C2.57 16.96 2.69 11.26 2.8 6.23C2.8 5.92 2.81 5.63 2.81 5.34C5.91 5.23 8.38 4.38 10.5 2.71C12.62 4.38 15.09 5.23 18.19 5.34C18.19 5.63 18.2 5.92 18.2 6.23C18.31 11.26 18.43 16.96 10.5 19.56ZM13.16 8.61L9.43 11.98L7.84 10.54C7.54 10.27 7.05 10.27 6.75 10.54C6.45 10.81 6.45 11.25 6.75 11.53L8.89 13.46C9.04 13.59 9.23 13.66 9.43 13.66C9.63 13.66 9.83 13.59 9.98 13.46L14.25 9.6C14.55 9.32 14.55 8.88 14.25 8.61C13.95 8.34 13.46 8.34 13.16 8.61Z" />
</svg>