<svg xmlns="http://www.w3.org/2000/svg" viewBox="0 0 22 27" width="22" height="27">
	<style>
		tspan { white-space:pre }
		.shp0 { fill: #e87845 } 
	</style>
	<path id="Shape 1" class="shp0" d="M10.42 14.39C10.44 14.39 10.47 14.39 10.49 14.39C10.5 14.39 10.51 14.39 10.52 14.39C10.53 14.39 10.55 14.39 10.57 14.39C11.92 14.37 13.02 13.88 13.83 12.94C15.6 10.87 15.31 7.33 15.28 6.99C15.16 4.45 14 3.24 13.04 2.67C12.32 2.25 11.48 2.02 10.55 2L10.52 2C10.51 2 10.5 2 10.5 2L10.47 2C9.96 2 8.95 2.09 7.98 2.65C7.01 3.22 5.83 4.43 5.71 6.99C5.68 7.33 5.39 10.87 7.17 12.94C7.97 13.88 9.07 14.37 10.42 14.39ZM6.95 7.11C6.95 7.09 6.95 7.08 6.95 7.07C7.11 3.66 9.46 3.29 10.47 3.29L10.48 3.29C10.49 3.29 10.51 3.29 10.52 3.29C11.77 3.32 13.89 3.84 14.03 7.07C14.03 7.08 14.03 7.1 14.04 7.11C14.04 7.14 14.37 10.38 12.9 12.08C12.31 12.76 11.54 13.1 10.52 13.11C10.51 13.11 10.5 13.11 10.49 13.11L10.49 13.11C10.48 13.11 10.48 13.11 10.47 13.11C9.45 13.1 8.67 12.76 8.09 12.08C6.63 10.39 6.94 7.14 6.95 7.11ZM19.99 20.27C19.99 20.27 19.99 20.26 19.99 20.26C19.99 20.22 19.99 20.18 19.99 20.14C19.96 19.19 19.9 16.99 17.89 16.28C17.88 16.28 17.86 16.27 17.85 16.27C15.76 15.72 14.03 14.48 14.01 14.47C13.73 14.27 13.34 14.33 13.14 14.63C12.94 14.92 13.01 15.32 13.29 15.52C13.37 15.58 15.21 16.9 17.51 17.51C18.59 17.91 18.71 19.09 18.74 20.18C18.74 20.22 18.74 20.26 18.75 20.3C18.75 20.72 18.72 21.39 18.65 21.77C17.9 22.21 14.97 23.72 10.5 23.72C6.06 23.72 3.1 22.2 2.35 21.76C2.28 21.38 2.24 20.72 2.25 20.29C2.25 20.25 2.26 20.22 2.26 20.17C2.29 19.09 2.41 17.9 3.49 17.5C5.79 16.89 7.63 15.57 7.71 15.51C7.99 15.31 8.06 14.91 7.86 14.62C7.66 14.33 7.27 14.26 6.99 14.47C6.97 14.48 5.25 15.71 3.15 16.27C3.14 16.27 3.12 16.27 3.11 16.28C1.1 16.99 1.04 19.19 1.01 20.13C1.01 20.18 1.01 20.22 1.01 20.25C1.01 20.26 1.01 20.26 1.01 20.27C1 20.51 1 21.78 1.25 22.42C1.29 22.55 1.37 22.65 1.49 22.72C1.62 22.82 4.95 25 10.51 25C16.07 25 19.39 22.81 19.53 22.72C19.64 22.65 19.72 22.55 19.77 22.42C20 21.79 20 20.52 19.99 20.27Z" />
</svg>